<svg width="474" height="69" viewBox="0 0 474 69" fill="none" xmlns="http://www.w3.org/2000/svg">
<g filter="url(#filter0_d_326_86)">
<path d="M31.36 60.2C27.6267 60.2 24.12 59.5467 20.84 58.24C17.5867 56.9067 14.72 54.96 12.24 52.4C9.78667 49.84 7.86667 46.7067 6.48 43C5.09333 39.2667 4.4 35 4.4 30.2C4.4 23.9067 5.57333 18.5333 7.92 14.08C10.2667 9.6 13.48 6.17333 17.56 3.8C21.64 1.4 26.24 0.199999 31.36 0.199999C38.4533 0.199999 44.0667 1.85333 48.2 5.16C52.36 8.44 55.1733 13.0533 56.64 19L46.8 20.56C45.7067 17.1467 43.92 14.4267 41.44 12.4C38.96 10.3467 35.8 9.32 31.96 9.32C28.0933 9.26666 24.88 10.1067 22.32 11.84C19.76 13.5733 17.8267 16.0133 16.52 19.16C15.24 22.3067 14.6 25.9867 14.6 30.2C14.6 34.4133 15.24 38.08 16.52 41.2C17.8 44.2933 19.72 46.7067 22.28 48.44C24.8667 50.1733 28.0933 51.0667 31.96 51.12C34.8667 51.1467 37.4133 50.6267 39.6 49.56C41.7867 48.4667 43.5733 46.8267 44.96 44.64C46.3467 42.4267 47.28 39.6667 47.76 36.36H37.6V28.8H58C58.0533 29.2267 58.0933 29.8533 58.12 30.68C58.1467 31.5067 58.16 32 58.16 32.16C58.16 37.6 57.08 42.44 54.92 46.68C52.7867 50.8933 49.72 54.2 45.72 56.6C41.72 59 36.9333 60.2 31.36 60.2ZM63.7937 59V15.8H72.3137V26.32L71.2737 24.96C71.8071 23.52 72.5137 22.2133 73.3937 21.04C74.3004 19.84 75.3804 18.8533 76.6337 18.08C77.7004 17.36 78.8738 16.8 80.1537 16.4C81.4604 15.9733 82.7938 15.72 84.1538 15.64C85.5138 15.5333 86.8338 15.5867 88.1137 15.8V24.8C86.8338 24.4267 85.3538 24.3067 83.6737 24.44C82.0204 24.5733 80.5271 25.04 79.1937 25.84C77.8604 26.56 76.7671 27.48 75.9137 28.6C75.0871 29.72 74.4737 31 74.0737 32.44C73.6737 33.8533 73.4737 35.3867 73.4737 37.04V59H63.7937ZM112.206 60.2C107.832 60.2 103.992 59.2533 100.686 57.36C97.379 55.4667 94.7923 52.84 92.9256 49.48C91.0856 46.12 90.1656 42.2533 90.1656 37.88C90.1656 33.16 91.0723 29.0667 92.8856 25.6C94.699 22.1067 97.219 19.4 100.446 17.48C103.672 15.56 107.406 14.6 111.646 14.6C116.126 14.6 119.926 15.6533 123.046 17.76C126.192 19.84 128.526 22.7867 130.046 26.6C131.566 30.4133 132.139 34.9067 131.766 40.08H122.206V36.56C122.179 31.8667 121.352 28.44 119.726 26.28C118.099 24.12 115.539 23.04 112.046 23.04C108.099 23.04 105.166 24.2667 103.246 26.72C101.326 29.1467 100.366 32.7067 100.366 37.4C100.366 41.7733 101.326 45.16 103.246 47.56C105.166 49.96 107.966 51.16 111.646 51.16C114.019 51.16 116.059 50.64 117.766 49.6C119.499 48.5333 120.832 47 121.766 45L131.286 47.88C129.632 51.7733 127.072 54.8 123.606 56.96C120.166 59.12 116.366 60.2 112.206 60.2ZM97.3256 40.08V32.8H127.046V40.08H97.3256ZM149.589 60.2C146.469 60.2 143.829 59.6133 141.669 58.44C139.509 57.24 137.869 55.6533 136.749 53.68C135.656 51.7067 135.109 49.5333 135.109 47.16C135.109 45.08 135.456 43.2133 136.149 41.56C136.843 39.88 137.909 38.44 139.349 37.24C140.789 36.0133 142.656 35.0133 144.949 34.24C146.683 33.68 148.709 33.1733 151.029 32.72C153.376 32.2667 155.909 31.8533 158.629 31.48C161.376 31.08 164.243 30.6533 167.229 30.2L163.789 32.16C163.816 29.1733 163.149 26.9733 161.789 25.56C160.429 24.1467 158.136 23.44 154.909 23.44C152.963 23.44 151.083 23.8933 149.269 24.8C147.456 25.7067 146.189 27.2667 145.469 29.48L136.669 26.72C137.736 23.0667 139.763 20.1333 142.749 17.92C145.763 15.7067 149.816 14.6 154.909 14.6C158.749 14.6 162.123 15.2267 165.029 16.48C167.963 17.7333 170.136 19.7867 171.549 22.64C172.323 24.16 172.789 25.72 172.949 27.32C173.109 28.8933 173.189 30.6133 173.189 32.48V59H164.749V49.64L166.149 51.16C164.203 54.28 161.923 56.5733 159.309 58.04C156.723 59.48 153.483 60.2 149.589 60.2ZM151.509 52.52C153.696 52.52 155.563 52.1333 157.109 51.36C158.656 50.5867 159.883 49.64 160.789 48.52C161.723 47.4 162.349 46.3467 162.669 45.36C163.176 44.1333 163.456 42.7333 163.509 41.16C163.589 39.56 163.629 38.2667 163.629 37.28L166.589 38.16C163.683 38.6133 161.189 39.0133 159.109 39.36C157.029 39.7067 155.243 40.04 153.749 40.36C152.256 40.6533 150.936 40.9867 149.789 41.36C148.669 41.76 147.723 42.2267 146.949 42.76C146.176 43.2933 145.576 43.9067 145.149 44.6C144.749 45.2933 144.549 46.1067 144.549 47.04C144.549 48.1067 144.816 49.0533 145.349 49.88C145.883 50.68 146.656 51.32 147.669 51.8C148.709 52.28 149.989 52.52 151.509 52.52ZM206.523 59C203.67 59.5333 200.87 59.76 198.123 59.68C195.403 59.6267 192.963 59.1333 190.803 58.2C188.643 57.24 187.003 55.7333 185.883 53.68C184.896 51.8133 184.376 49.9067 184.323 47.96C184.27 46.0133 184.243 43.8133 184.243 41.36V3.8H193.843V40.8C193.843 42.5333 193.856 44.0533 193.883 45.36C193.936 46.6667 194.216 47.7333 194.723 48.56C195.683 50.16 197.216 51.0533 199.323 51.24C201.43 51.4267 203.83 51.32 206.523 50.92V59ZM176.403 23.36V15.8H206.523V23.36H176.403ZM251.388 60.2C245.628 60.2 240.695 58.9467 236.588 56.44C232.481 53.9067 229.321 50.3867 227.108 45.88C224.921 41.3733 223.828 36.1467 223.828 30.2C223.828 24.2533 224.921 19.0267 227.108 14.52C229.321 10.0133 232.481 6.50666 236.588 4C240.695 1.46666 245.628 0.199999 251.388 0.199999C258.028 0.199999 263.561 1.86667 267.988 5.2C272.415 8.50666 275.521 12.9733 277.308 18.6L267.588 21.28C266.468 17.52 264.561 14.5867 261.868 12.48C259.175 10.3467 255.681 9.28 251.388 9.28C247.521 9.28 244.295 10.1467 241.708 11.88C239.148 13.6133 237.215 16.0533 235.908 19.2C234.628 22.32 233.975 25.9867 233.948 30.2C233.948 34.4133 234.588 38.0933 235.868 41.24C237.175 44.36 239.121 46.7867 241.708 48.52C244.295 50.2533 247.521 51.12 251.388 51.12C255.681 51.12 259.175 50.0533 261.868 47.92C264.561 45.7867 266.468 42.8533 267.588 39.12L277.308 41.8C275.521 47.4267 272.415 51.9067 267.988 55.24C263.561 58.5467 258.028 60.2 251.388 60.2ZM302.771 60.2C298.451 60.2 294.677 59.2267 291.451 57.28C288.224 55.3333 285.717 52.6533 283.931 49.24C282.171 45.8 281.291 41.8533 281.291 37.4C281.291 32.8667 282.197 28.8933 284.011 25.48C285.824 22.0667 288.344 19.4 291.571 17.48C294.797 15.56 298.531 14.6 302.771 14.6C307.117 14.6 310.904 15.5733 314.131 17.52C317.357 19.4667 319.864 22.16 321.651 25.6C323.437 29.0133 324.331 32.9467 324.331 37.4C324.331 41.88 323.424 45.84 321.611 49.28C319.824 52.6933 317.317 55.3733 314.091 57.32C310.864 59.24 307.091 60.2 302.771 60.2ZM302.771 51.16C306.611 51.16 309.464 49.88 311.331 47.32C313.197 44.76 314.131 41.4533 314.131 37.4C314.131 33.2133 313.184 29.88 311.291 27.4C309.397 24.8933 306.557 23.64 302.771 23.64C300.184 23.64 298.051 24.2267 296.371 25.4C294.717 26.5467 293.491 28.16 292.691 30.24C291.891 32.2933 291.491 34.68 291.491 37.4C291.491 41.5867 292.437 44.9333 294.331 47.44C296.251 49.92 299.064 51.16 302.771 51.16ZM334.504 59V15.12C334.504 14.0267 334.544 12.8267 334.624 11.52C334.704 10.1867 334.93 8.86666 335.304 7.56C335.677 6.25333 336.357 5.06666 337.344 4C338.57 2.64 339.89 1.70666 341.304 1.2C342.744 0.666665 344.157 0.373331 345.544 0.319995C346.93 0.239998 348.144 0.199999 349.184 0.199999H354.584V8.04H349.584C347.744 8.04 346.37 8.50666 345.464 9.44C344.584 10.3467 344.144 11.5467 344.144 13.04V59H334.504ZM327.544 23.36V15.8H354.584V23.36H327.544ZM361.424 59V15.12C361.424 14.0267 361.464 12.8267 361.544 11.52C361.624 10.1867 361.85 8.86666 362.224 7.56C362.597 6.25333 363.277 5.06666 364.264 4C365.49 2.64 366.81 1.70666 368.224 1.2C369.664 0.666665 371.077 0.373331 372.464 0.319995C373.85 0.239998 375.064 0.199999 376.104 0.199999H381.504V8.04H376.504C374.664 8.04 373.29 8.50666 372.384 9.44C371.504 10.3467 371.064 11.5467 371.064 13.04V59H361.424ZM354.464 23.36V15.8H381.504V23.36H354.464ZM403.609 60.2C399.235 60.2 395.395 59.2533 392.089 57.36C388.782 55.4667 386.195 52.84 384.329 49.48C382.489 46.12 381.569 42.2533 381.569 37.88C381.569 33.16 382.475 29.0667 384.289 25.6C386.102 22.1067 388.622 19.4 391.849 17.48C395.075 15.56 398.809 14.6 403.049 14.6C407.529 14.6 411.329 15.6533 414.449 17.76C417.595 19.84 419.929 22.7867 421.449 26.6C422.969 30.4133 423.542 34.9067 423.169 40.08H413.609V36.56C413.582 31.8667 412.755 28.44 411.129 26.28C409.502 24.12 406.942 23.04 403.449 23.04C399.502 23.04 396.569 24.2667 394.649 26.72C392.729 29.1467 391.769 32.7067 391.769 37.4C391.769 41.7733 392.729 45.16 394.649 47.56C396.569 49.96 399.369 51.16 403.049 51.16C405.422 51.16 407.462 50.64 409.169 49.6C410.902 48.5333 412.235 47 413.169 45L422.689 47.88C421.035 51.7733 418.475 54.8 415.009 56.96C411.569 59.12 407.769 60.2 403.609 60.2ZM388.729 40.08V32.8H418.449V40.08H388.729ZM449.334 60.2C444.96 60.2 441.12 59.2533 437.814 57.36C434.507 55.4667 431.92 52.84 430.054 49.48C428.214 46.12 427.294 42.2533 427.294 37.88C427.294 33.16 428.2 29.0667 430.014 25.6C431.827 22.1067 434.347 19.4 437.574 17.48C440.8 15.56 444.534 14.6 448.774 14.6C453.254 14.6 457.054 15.6533 460.174 17.76C463.32 19.84 465.654 22.7867 467.174 26.6C468.694 30.4133 469.267 34.9067 468.894 40.08H459.334V36.56C459.307 31.8667 458.48 28.44 456.854 26.28C455.227 24.12 452.667 23.04 449.174 23.04C445.227 23.04 442.294 24.2667 440.374 26.72C438.454 29.1467 437.494 32.7067 437.494 37.4C437.494 41.7733 438.454 45.16 440.374 47.56C442.294 49.96 445.094 51.16 448.774 51.16C451.147 51.16 453.187 50.64 454.894 49.6C456.627 48.5333 457.96 47 458.894 45L468.414 47.88C466.76 51.7733 464.2 54.8 460.734 56.96C457.294 59.12 453.494 60.2 449.334 60.2ZM434.454 40.08V32.8H464.174V40.08H434.454Z" fill="white"/>
</g>
<defs>
<filter id="filter0_d_326_86" x="0.399902" y="0.199951" width="473.054" height="68" filterUnits="userSpaceOnUse" color-interpolation-filters="sRGB">
<feFlood flood-opacity="0" result="BackgroundImageFix"/>
<feColorMatrix in="SourceAlpha" type="matrix" values="0 0 0 0 0 0 0 0 0 0 0 0 0 0 0 0 0 0 127 0" result="hardAlpha"/>
<feOffset dy="4"/>
<feGaussianBlur stdDeviation="2"/>
<feComposite in2="hardAlpha" operator="out"/>
<feColorMatrix type="matrix" values="0 0 0 0 0 0 0 0 0 0 0 0 0 0 0 0 0 0 0.25 0"/>
<feBlend mode="normal" in2="BackgroundImageFix" result="effect1_dropShadow_326_86"/>
<feBlend mode="normal" in="SourceGraphic" in2="effect1_dropShadow_326_86" result="shape"/>
</filter>
</defs>
</svg>
